:version 1.10
:name ASF
:units
  mass 1
  length 1
  angle deg
:documentation
  ASF file generated by Kaydara
:root
  axis xyz
  order  tx ty tz rx ry rz
  position 0 0 0
  orientation 0 0 0
:bonedata
  begin
    id 1
    name RightUpLegDummy
    direction -1 2.30186e-007 8.31532e-007
    length 4.46685
    axis 0 0 0 xyz
  end
  begin
    id 2
    name RightUpLeg
    direction -2.30187e-007 -1 1.24343e-010
    length 16.4045
    axis -3.49089 -0.000906625 0.000286804 xyz
    dof rx ry rz
  end
  begin
    id 3
    name RightLeg
    direction -2.30181e-007 -1 -4.17157e-009
    length 17.5097
    axis 3.68512 0.0193738 -0.131023 xyz
    dof rx ry rz
  end
  begin
    id 4
    name RightFoot
    direction 8.31421e-007 -4.51202e-011 1
    length 6.49508
    axis 4.81691e-005 -0.120479 -0.188788 xyz
    dof rx ry rz
  end
  begin
    id 5
    name RightToes
    direction 0.00124746 -0.014064 0.9999
    length 3.85082
    axis 0.000481921 0.542163 -0.142578 xyz
    dof rx ry rz
  end
  begin
    id 6
    name SpineDummy
    direction 0.0717043 0.9409 -0.331007
    length 10.0032
    axis 0 0 0 xyz
  end
  begin
    id 7
    name Spine
    direction 2.30186e-007 1 4.58806e-011
    length 9.84055
    axis -0.001389 0.000121418 2.40972e-006 xyz
    dof rx ry rz
  end
  begin
    id 8
    name Spine1
    direction 0 0 0
    length 0
    axis -0.001389 0.000121451 1.30017e-006 xyz
    dof rx ry rz
  end
  begin
    id 9
    name HEadDummy
    direction -0.00347485 0.950688 -0.310128
    length 8.00997
    axis -0.001389 0.000121451 1.30017e-006 xyz
  end
  begin
    id 10
    name HEad
    direction -0.0222688 0.980941 0.193023
    length 5.12695
    axis -0.001389 0.000121451 1.30017e-006 xyz
    dof rx ry rz
  end
  begin
    id 11
    name LeftShoulder1Dummy
    direction 0.988871 0.146793 -0.0242004
    length 3.5792
    axis -0.001389 0.000121451 1.30017e-006 xyz
  end
  begin
    id 12
    name LeftShoulder1
    direction 0.993832 0.108932 0.020779
    length 4.16823
    axis -0.001389 0.000121451 1.30017e-006 xyz
    dof rx ry rz
  end
  begin
    id 13
    name LeftArm
    direction 1 3.44807e-006 -8.31404e-007
    length 9.91437
    axis -23.1894 0.134784 0.967509 xyz
    dof rx ry rz
  end
  begin
    id 14
    name LeftForeArm
    direction 1 3.44842e-006 -8.31581e-007
    length 9.08575
    axis -9.91835 -0.06569 -0.177793 xyz
    dof rx ry rz
  end
  begin
    id 15
    name LeftHand
    direction 0.992938 -0.0411636 0.11126
    length 5.32135
    axis -0.00960232 -0.00340091 0.185173 xyz
    dof rx ry rz
  end
  begin
    id 16
    name RightShoulderDummy
    direction -0.988871 0.146793 -0.0241962
    length 3.5792
    axis -0.001389 0.000121451 1.30017e-006 xyz
  end
  begin
    id 17
    name RightShoulder
    direction -0.993832 0.108933 0.0207785
    length 4.16823
    axis 0.215806 0.000203643 -0.0068026 xyz
    dof rx ry rz
  end
  begin
    id 18
    name RightArm
    direction -1 3.90912e-006 8.31284e-007
    length 9.91437
    axis -23.2009 -0.134239 -0.964101 xyz
    dof rx ry rz
  end
  begin
    id 19
    name RightForeArm
    direction -1 3.90882e-006 8.31502e-007
    length 9.08575
    axis -9.92322 0.0658061 0.178867 xyz
    dof rx ry rz
  end
  begin
    id 20
    name RightHand
    direction -0.992843 -0.0414603 0.112003
    length 5.28593
    axis -0.00960638 0.00330671 -0.185228 xyz
    dof rx ry rz
  end
  begin
    id 21
    name LeftUpLegDummy
    direction 1 -2.30186e-007 -8.31532e-007
    length 4.46685
    axis 0 0 0 xyz
  end
  begin
    id 22
    name LeftUpLeg
    direction -2.30187e-007 -1 6.00931e-010
    length 16.4045
    axis -3.48766 0.00143442 -0.000524262 xyz
    dof rx ry rz
  end
  begin
    id 23
    name LeftLeg
    direction -2.30187e-007 -1 1.6669e-009
    length 17.5097
    axis 3.68178 -0.00654042 -0.000285133 xyz
    dof rx ry rz
  end
  begin
    id 24
    name LeftFoot
    direction 8.31532e-007 -4.54478e-011 1
    length 6.49508
    axis 1.87233e-006 4.66016e-005 -8.6538e-006 xyz
    dof rx ry rz
  end
  begin
    id 25
    name LeftToes
    direction 0.00818058 -0.00485161 0.999955
    length 3.85048
    axis 1.06247e-005 4.65869e-005 -8.65513e-006 xyz
    dof rx ry rz
  end
:hierarchy
  begin
    root RightUpLegDummy SpineDummy LeftUpLegDummy
    RightUpLegDummy RightUpLeg
    RightUpLeg RightLeg
    RightLeg RightFoot
    RightFoot RightToes
    SpineDummy Spine
    Spine Spine1
    Spine1 HEadDummy LeftShoulder1Dummy RightShoulderDummy
    HEadDummy HEad
    LeftShoulder1Dummy LeftShoulder1
    LeftShoulder1 LeftArm
    LeftArm LeftForeArm
    LeftForeArm LeftHand
    RightShoulderDummy RightShoulder
    RightShoulder RightArm
    RightArm RightForeArm
    RightForeArm RightHand
    LeftUpLegDummy LeftUpLeg
    LeftUpLeg LeftLeg
    LeftLeg LeftFoot
    LeftFoot LeftToes
  end

:SAMPLES-PER-SECOND 30
:FULLY-SPECIFIED
:DEGREES
88
root  49.6589 31.8476 27.987 179.161 -60.6527 178.651
RightUpLeg  -22.257 -4.14747 -15.8635
RightLeg  41.3122 -2.55853 -1.99552
RightFoot  -3.24404 0.00157725 0.433342
RightToes  -37.3021 -0.197298 -0.29938
Spine  7.61838 0.0293997 -1.1195
Spine1  14.4314 0.617579 -3.26979
HEad  13.5887 -4.55749 13.323
LeftShoulder1  0 -2.42657e-020 -4.95415e-022
LeftArm  -51.9623 4.55458 -80.7979
LeftForeArm  67.8703 -9.58826 -1.6442
LeftHand  0.14209 -7.36138 -2.58092
RightShoulder  0 2.42657e-020 1.07489e-018
RightArm  -42.0337 -3.92162 88.8325
RightForeArm  53.1267 22.2709 4.10461
RightHand  -2.47931 22.414 -12.0993
LeftUpLeg  -16.3277 -1.89861 2.21037
LeftLeg  42.5313 -5.91091 -4.74738
LeftFoot  -13.3749 0.195041 1.66333
LeftToes  -21.6191 3.33339e-006 -4.73431e-007
89
root  49.5468 32.0399 27.4072 179.402 -59.821 178.829
RightUpLeg  -19.2506 -1.08959 -18.1463
RightLeg  31.498 -4.32207 -2.28641
RightFoot  -1.20679 -0.000251934 0.353832
RightToes  -35.6028 -0.184344 -0.28896
Spine  7.0218 0.192147 -0.890319
Spine1  13.2851 0.84987 -2.75102
HEad  15.6103 -4.74613 12.4055
LeftShoulder1  0 -2.42657e-020 -4.95415e-022
LeftArm  -52.9561 5.7438 -81.5403
LeftForeArm  67.7505 -9.5988 -1.6464
LeftHand  0.124159 -7.3801 -2.2971
RightShoulder  0 2.42657e-020 1.07489e-018
RightArm  -44.3255 -4.96495 88.8902
RightForeArm  53.7889 22.0489 4.0576
RightHand  -2.52522 22.2203 -12.4411
LeftUpLeg  -14.6525 -2.09167 2.95517
LeftLeg  40.0308 -5.37428 -3.94815
LeftFoot  -12.806 0.152946 1.36283
LeftToes  -22.5303 3.33339e-006 -4.73431e-007
90
root  49.4688 32.1715 26.7896 -179.613 -59.0556 178.347
RightUpLeg  -16.9513 0.978441 -20.4118
RightLeg  22.6413 -4.68512 -1.60924
RightFoot  0.767086 0.00131968 0.180247
RightToes  -36.5026 -0.187613 -0.29162
Spine  6.43811 0.17417 -0.720198
Spine1  12.1806 0.735996 -2.36853
HEad  17.2969 -4.17765 11.3369
LeftShoulder1  0 -2.42657e-020 -4.95415e-022
LeftArm  -53.3717 6.92528 -82.2949
LeftForeArm  67.3754 -9.77724 -1.67955
LeftHand  0.105528 -7.45428 -1.99164
RightShoulder  0 2.42657e-020 1.07489e-018
RightArm  -45.6614 -5.91369 88.573
RightForeArm  53.5966 21.9235 4.03223
RightHand  -2.52906 22.1187 -12.5203
LeftUpLeg  -13.3037 -2.06395 3.46892
LeftLeg  37.8163 -4.99485 -3.38288
LeftFoot  -12.2706 0.123527 1.14912
LeftToes  -23.2932 3.33339e-006 -4.73431e-007
91
root  49.4458 32.211 26.1155 -178.535 -58.1499 177.655
RightUpLeg  -15.8532 0.908147 -22.0871
RightLeg  16.6741 -3.30482 -0.761551
RightFoot  -0.368302 -0.000351699 0.268631
RightToes  -36.9451 -0.19455 -0.297223
Spine  6.02092 0.140353 -0.596723
Spine1  11.3889 0.607834 -2.09435
HEad  18.4752 -3.05803 10.4477
LeftShoulder1  0 -2.42657e-020 -4.95415e-022
LeftArm  -53.7555 7.6075 -82.9681
LeftForeArm  67.2622 -9.84436 -1.69196
LeftHand  0.0921919 -7.24588 -1.82767
RightShoulder  0 2.42657e-020 1.07489e-018
RightArm  -47.3162 -6.39164 88.2334
RightForeArm  53.4369 21.7346 3.99382
RightHand  -2.50623 21.8797 -12.5468
LeftUpLeg  -12.1399 -2.15626 3.94103
LeftLeg  36.2263 -4.34613 -2.77338
LeftFoot  -12.1137 0.0990939 0.933868
LeftToes  -23.4904 3.33339e-006 -4.73431e-007
92
root  49.4736 32.1756 25.3366 -177.337 -56.7255 176.729
RightUpLeg  -15.9499 -0.206676 -22.8195
RightLeg  13.919 -4.11982 -0.741924
RightFoot  -1.24207 -0.000366332 0.343946
RightToes  -37.1691 -0.196273 -0.298578
Spine  5.70314 0.131654 -0.54798
Spine1  10.7642 0.551455 -1.99337
HEad  19.4493 -1.56662 9.27629
LeftShoulder1  0 -2.42657e-020 -4.95415e-022
LeftArm  -54.0162 8.24689 -83.469
LeftForeArm  67.0097 -9.95458 -1.71251
LeftHand  0.0897431 -7.52934 -1.73535
RightShoulder  0 2.42657e-020 1.07489e-018
RightArm  -48.7627 -6.61938 87.8739
RightForeArm  54.0669 21.3176 3.90748
RightHand  -2.63558 21.9478 -13.1648
LeftUpLeg  -10.6556 -1.41324 4.4511
LeftLeg  34.3041 -3.72474 -2.20648
LeftFoot  -11.8804 0.0756706 0.727241
LeftToes  -25.3091 3.33339e-006 -4.73431e-007
93
root  49.5956 32.0722 24.4838 -176.238 -54.6119 175.593
RightUpLeg  -17.5831 -2.87599 -22.6061
RightLeg  15.3497 -5.02525 -1.03499
RightFoot  -1.83471 0.000777039 0.426239
RightToes  -35.002 -0.179838 -0.285184
Spine  5.68918 0.21272 -0.650002
Spine1  10.7055 0.714391 -2.24289
HEad  19.796 0.560053 8.387
LeftShoulder1  0 -2.42657e-020 -4.95415e-022
LeftArm  -53.9632 8.43169 -83.627
LeftForeArm  66.5861 -10.2371 -1.76469
LeftHand  0.0946434 -7.70414 -1.77709
RightShoulder  0 2.42657e-020 1.07489e-018
RightArm  -49.3774 -6.27601 87.652
RightForeArm  54.9567 20.8775 3.81643
RightHand  -2.67078 21.8729 -13.3916
LeftUpLeg  -8.91428 -0.670197 4.90873
LeftLeg  32.7435 -2.77312 -1.54422
LeftFoot  -11.834 0.0488377 0.471215
LeftToes  -26.5688 3.33339e-006 -4.73431e-007
94
root  49.7981 31.9167 23.5286 -175.454 -52.9396 174.818
RightUpLeg  -19.3301 -7.08443 -21.2303
RightLeg  18.371 -6.81392 -1.78055
RightFoot  -1.86793 0.00192229 0.49565
RightToes  -33.7083 -0.170273 -0.276896
Spine  5.84174 0.0800321 -0.733442
Spine1  10.9625 0.46849 -2.51807
HEad  19.4848 2.94276 7.56095
LeftShoulder1  0 -2.42657e-020 -4.95415e-022
LeftArm  -53.0486 8.31532 -83.4447
LeftForeArm  65.5849 -10.5683 -1.82722
LeftHand  0.10808 -7.78498 -1.96003
RightShoulder  0 2.42657e-020 1.07489e-018
RightArm  -49.5263 -5.43841 87.5712
RightForeArm  55.5841 20.217 3.68222
RightHand  -2.6975 21.6232 -13.6908
LeftUpLeg  -7.31697 -0.140719 5.77044
LeftLeg  31.3774 -1.99569 -1.05116
LeftFoot  -11.7183 0.0267116 0.260288
LeftToes  -28.2894 3.33339e-006 -4.73431e-007
95
root  50.0275 31.748 22.5435 -174.803 -51.4676 174.246
RightUpLeg  -21.1883 -9.37791 -20.2893
RightLeg  20.8372 -7.23471 -2.22633
RightFoot  3.47275 0.0172859 -0.192623
RightToes  -39.9228 -0.217867 -0.314686
Spine  6.01538 -0.136797 -0.787575
Spine1  11.2541 0.0281803 -2.72336
HEad  19.0786 5.22282 6.4648
LeftShoulder1  0 -2.42657e-020 -4.95415e-022
LeftArm  -51.5972 7.88885 -83.1331
LeftForeArm  64.9084 -10.5044 -1.81725
LeftHand  0.111638 -7.84633 -1.99947
RightShoulder  0 2.42657e-020 1.07489e-018
RightArm  -48.8554 -4.73556 87.4011
RightForeArm  55.9611 19.4999 3.53844
RightHand  -2.64964 21.3747 -13.6066
LeftUpLeg  -5.79209 0.0827044 6.72202
LeftLeg  30.0655 -1.05502 -0.527021
LeftFoot  -11.4032 0.00103373 0.0103447
LeftToes  -29.9278 3.33339e-006 -4.73431e-007
96
root  50.311 31.621 21.4858 -175.235 -49.9202 174.919
RightUpLeg  -24.7212 -11.494 -18.0134
RightLeg  26.2428 -2.538 -1.05898
RightFoot  6.56803 0.0257054 -0.0704287
RightToes  -41.7297 -0.232446 -0.324683
Spine  6.2421 -0.329684 -0.432607
Spine1  11.6983 -0.433704 -2.09197
HEad  18.7577 7.36514 4.92805
LeftShoulder1  0 -2.42657e-020 -4.95415e-022
LeftArm  -51.4255 7.15734 -83.6609
LeftForeArm  65.7826 -10.3068 -1.7793
LeftHand  0.111526 -7.72495 -2.02351
RightShoulder  0 2.42657e-020 1.07489e-018
RightArm  -47.6061 -3.94761 86.4467
RightForeArm  56.7036 18.4483 3.32954
RightHand  -2.63598 21.3571 -13.5468
LeftUpLeg  -3.87838 1.62592 8.87465
LeftLeg  28.3614 -1.18754 -0.54912
LeftFoot  -10.6449 -0.00104273 -0.0112016
LeftToes  -32.3365 3.33339e-006 -4.73431e-007
97
root  50.6268 31.5018 20.3221 -176.281 -48.7448 176.462
RightUpLeg  -27.9672 -11.8002 -15.0763
RightLeg  32.1266 1.18247 0.629313
RightFoot  6.7108 0.00132664 0.354885
RightToes  -41.0257 -0.226729 -0.329193
Spine  6.46172 -0.64927 0.223964
Spine1  12.1985 -1.17818 -0.84475
HEad  18.3882 9.3572 3.05982
LeftShoulder1  0 -2.42657e-020 -4.95415e-022
LeftArm  -51.2925 6.62762 -84.8063
LeftForeArm  65.9615 -10.7592 -1.86099
LeftHand  0.129074 -7.68117 -2.29455
RightShoulder  0 2.42657e-020 1.07489e-018
RightArm  -46.2923 -3.32084 85.1841
RightForeArm  57.6407 17.5923 3.16074
RightHand  -2.57343 21.276 -13.2721
LeftUpLeg  -1.61729 4.72002 12.3757
LeftLeg  26.0362 -3.19419 -1.31581
LeftFoot  -9.29373 0.022742 0.279784
LeftToes  -36.5812 3.33339e-006 -4.73431e-007
98
root  50.9545 31.3699 19.1598 -176.959 -48.2159 177.743
RightUpLeg  -29.3187 -11.5679 -12.633
RightLeg  35.2662 1.14524 0.688873
RightFoot  6.85538 0.00325831 0.323117
RightToes  -42.4021 -0.237951 -0.328285
Spine  6.65782 -1.15802 0.827799
Spine1  12.6158 -2.28127 0.247002
HEad  18.1332 11.3032 1.33962
LeftShoulder1  0 -2.42657e-020 -4.95415e-022
LeftArm  -49.8268 6.03638 -85.8486
LeftForeArm  64.7474 -11.3592 -1.97328
LeftHand  0.110197 -7.74118 -2.00038
RightShoulder  0 2.42657e-020 1.07489e-018
RightArm  -44.5046 -3.16862 84.074
RightForeArm  57.3605 17.2111 3.08758
RightHand  -2.44079 21.1604 -12.6467
LeftUpLeg  -0.228615 6.23023 15.4986
LeftLeg  24.7445 -4.32381 -1.66611
LeftFoot  -7.74768 0.0215868 0.318781
LeftToes  -39.7565 3.33339e-006 -4.73431e-007
99
root  51.3235 31.2511 18.0699 -176.751 -49.0869 178.259
RightUpLeg  -30.7908 -13.4746 -10.4686
RightLeg  38.8567 1.71719 1.1892
RightFoot  3.89344 0.00294251 0.290926
RightToes  -40.2635 -0.220592 -0.316606
Spine  6.76379 -1.99087 1.25221
Spine1  12.7802 -4.04301 0.99858
HEad  17.5317 12.7231 0.166188
LeftShoulder1  0 -2.42657e-020 -4.95415e-022
LeftArm  -46.921 5.3164 -86.5411
LeftForeArm  62.5959 -12.4399 -2.17653
LeftHand  0.144512 -7.90994 -2.46211
RightShoulder  0 2.42657e-020 1.07489e-018
RightArm  -43.742 -3.32888 83.3475
RightForeArm  57.385 16.8259 3.01334
RightHand  -2.43312 21.2266 -12.565
LeftUpLeg  -0.900299 4.53884 17.3412
LeftLeg  25.3265 -3.51598 -1.39715
LeftFoot  -5.76022 0.00191703 0.0380955
LeftToes  -42.0839 3.33339e-006 -4.73431e-007
100
root  51.6527 31.2637 17.0932 -176.043 -49.8934 177.935
RightUpLeg  -31.4961 -14.5398 -9.09061
RightLeg  41.0925 1.70064 1.27568
RightFoot  1.52438 0.00254269 0.186335
RightToes  -38.6743 -0.20798 -0.307512
Spine  6.90349 -2.60035 1.40888
Spine1  12.9454 -5.41993 1.43848
HEad  17.0049 13.3619 -0.494859
LeftShoulder1  0 -2.42657e-020 -4.95415e-022
LeftArm  -45.1322 3.93195 -87.4138
LeftForeArm  62.5306 -13.4106 -2.35619
LeftHand  0.200305 -8.77527 -2.98241
RightShoulder  0 2.42657e-020 1.07489e-018
RightArm  -44.7938 -3.69617 82.864
RightForeArm  57.6457 16.1483 2.883
RightHand  -2.46957 21.1026 -12.8355
LeftUpLeg  -2.13147 1.69162 17.8801
LeftLeg  26.7961 -0.925912 -0.398445
LeftFoot  -2.84309 -0.00827286 -0.333379
LeftToes  -43.054 3.33339e-006 -4.73431e-007
101
root  51.9748 31.4536 16.2141 -174.795 -51.4323 177.352
RightUpLeg  -31.2763 -14.5717 -8.05659
RightLeg  41.2664 0.275202 0.186821
RightFoot  -0.029607 -7.38254e-005 0.0940113
RightToes  -36.6894 -0.192591 -0.295667
Spine  6.89534 -3.26816 1.4894
Spine1  12.8521 -6.9293 1.89273
HEad  16.7284 13.2592 -0.580763
LeftShoulder1  0 -2.42657e-020 -4.95415e-022
LeftArm  -42.4247 2.14824 -88.5494
LeftForeArm  61.3598 -14.3694 -2.5377
LeftHand  0.219205 -8.43608 -3.34422
RightShoulder  0 2.42657e-020 1.07489e-018
RightArm  -48.7825 -4.14806 82.7036
RightForeArm  59.0648 15.1347 2.68755
RightHand  -2.44993 21.1293 -12.7145
LeftUpLeg  -4.2165 -1.76076 17.842
LeftLeg  28.4212 2.06562 0.948023
LeftFoot  0.0279068 9.84129e-005 -0.40417
LeftToes  -37.2706 3.33339e-006 -4.73431e-007
